<svg xmlns="http://www.w3.org/2000/svg" width="17.591" height="18" viewBox="0 0 17.591 18">
  <g id="Group_17809" data-name="Group 17809" transform="translate(-73.726 -631.072)">
    <path id="Path_432" data-name="Path 432" d="M496.049,318.072a2.13,2.13,0,0,0,.487.1,5.237,5.237,0,0,1,2.975,8.46c-.024.03-.039.075-.1.078a3.145,3.145,0,0,0-1.656-2.482,3.148,3.148,0,0,0,.589-1.121,2.942,2.942,0,0,0-2.172-3.667,2.934,2.934,0,0,0-2.9,4.677c.075.1.064.126-.036.185a3.1,3.1,0,0,0-1.543,2.4c-.069.009-.087-.061-.12-.1a5.25,5.25,0,0,1,1.777-8.029,5.11,5.11,0,0,1,1.633-.466c.028,0,.06,0,.074-.033Z" transform="translate(-413.029 313)" fill="#04a4de"/>
    <path id="Path_433" data-name="Path 433" d="M523.192,558.128c.076-.437.156-.9.236-1.361.04-.228.077-.456.121-.684a.45.45,0,0,0-.147-.447c-.488-.461-.968-.93-1.452-1.4-.069-.067-.147-.129-.109-.242s.13-.1.219-.117c.652-.093,1.3-.194,1.957-.279a.537.537,0,0,0,.463-.327c.286-.6.59-1.188.886-1.781.04-.081.076-.168.184-.169s.146.085.186.166c.292.589.595,1.173.875,1.767a.558.558,0,0,0,.488.346c.642.081,1.281.179,1.922.271.1.014.21.007.244.135s-.063.183-.133.251c-.474.458-.946.92-1.427,1.371a.462.462,0,0,0-.148.463q.176.972.341,1.946c.016.1.058.2-.048.279s-.191,0-.279-.043c-.589-.306-1.179-.61-1.764-.922a.485.485,0,0,0-.5,0c-.606.324-1.217.638-1.828.953C523.3,558.4,523.185,558.336,523.192,558.128Z" transform="translate(-443.023 90.719)" fill="#04a4de"/>
    <path id="Path_434" data-name="Path 434" d="M534.583,462a5.167,5.167,0,0,1-3.1-1.065.206.206,0,0,1-.112-.166,2.508,2.508,0,0,1,1.022-2.267c.033-.025.069-.046.1-.07a.639.639,0,0,1,.789-.043,2.768,2.768,0,0,0,2.893-.1.274.274,0,0,1,.3-.018,2.464,2.464,0,0,1,1.414,2.222.592.592,0,0,1-.3.59A5.35,5.35,0,0,1,534.583,462Z" transform="translate(-452.101 179.452)" fill="#04a4de"/>
    <path id="Path_435" data-name="Path 435" d="M554.3,359.254a2.282,2.282,0,1,1-2.279,2.274A2.28,2.28,0,0,1,554.3,359.254Z" transform="translate(-471.776 273.777)" fill="#04a4de"/>
    <path id="Path_436" data-name="Path 436" d="M668.332,535.983c.077-.447.132-.884.231-1.311a.669.669,0,0,0-.234-.752c-.318-.266-.6-.572-.9-.86-.067-.064-.13-.129-.095-.23s.13-.109.219-.121c.476-.069.951-.142,1.427-.2a.419.419,0,0,0,.349-.261c.208-.426.423-.848.634-1.273.04-.081.075-.164.187-.163s.144.088.183.168c.212.424.426.847.634,1.273a.42.42,0,0,0,.352.258c.471.061.94.134,1.41.2.095.014.2.018.233.129s-.046.175-.115.241c-.333.322-.663.648-1,.964a.453.453,0,0,0-.147.461c.09.466.163.935.247,1.4a.2.2,0,0,1-.062.223c-.075.055-.146.021-.216-.016-.409-.215-.823-.42-1.226-.647a.546.546,0,0,0-.6,0c-.4.228-.816.434-1.227.645C668.455,536.2,668.328,536.128,668.332,535.983Z" transform="translate(-581.652 110.261)" fill="#04a4de"/>
    <path id="Path_437" data-name="Path 437" d="M414.74,535.952c.064-.367.132-.746.2-1.126.112-.672.177-.532-.32-1.015q-.4-.385-.8-.767c-.062-.06-.116-.12-.085-.216s.116-.11.2-.122c.487-.071.974-.145,1.462-.209a.392.392,0,0,0,.324-.24c.211-.431.427-.858.641-1.287.04-.08.073-.167.185-.167s.147.084.188.164c.211.424.426.846.633,1.272a.418.418,0,0,0,.349.261c.477.061.951.136,1.427.2.09.013.181.022.22.122s-.033.166-.1.228c-.338.326-.671.656-1.015.975a.449.449,0,0,0-.152.445c.081.443.157.888.235,1.332.005.029.007.059.011.088.013.083.027.168-.056.227s-.156.019-.232-.021c-.4-.212-.813-.414-1.21-.638a.545.545,0,0,0-.6,0c-.4.228-.816.433-1.227.644C414.857,536.191,414.74,536.13,414.74,535.952Z" transform="translate(-340 110.267)" fill="#04a4de"/>
    <path id="Path_438" data-name="Path 438" d="M555.91,588.158a.336.336,0,0,1-.354-.274.3.3,0,0,1,.237-.362c.3-.058.608-.1.913-.138a.288.288,0,0,0,.263-.192c.118-.264.253-.521.384-.779a.329.329,0,1,1,.59.284c-.174.356-.354.709-.531,1.063a.322.322,0,0,1-.231.2C556.748,588.032,556.315,588.1,555.91,588.158Z" transform="translate(-475.132 57.537)" fill="#04a4de"/>
  </g>
</svg>
