<svg id="time" xmlns="http://www.w3.org/2000/svg" width="18" height="18" viewBox="0 0 18 18">
  <path id="Path_783" data-name="Path 783" d="M9,16.875A7.875,7.875,0,1,0,1.125,9,7.875,7.875,0,0,0,9,16.875ZM18,9A9,9,0,1,1,9,0,9,9,0,0,1,18,9Z" fill="#33333"/>
  <path id="Path_784" data-name="Path 784" d="M16.309,6.75a.559.559,0,0,1,.559.559v5.825L20.5,15.208a.559.559,0,0,1-.554.97l-3.913-2.236a.559.559,0,0,1-.282-.485V7.309A.559.559,0,0,1,16.309,6.75Z" transform="translate(-7.855 -3.352)" fill="#33333"/>
</svg>
