<svg data-v-630b9da2="" width="120" height="120" viewBox="0 0 120 120" fill="none" xmlns="http://www.w3.org/2000/svg" class="block q-mb-lg"><rect data-v-630b9da2="" width="120" height="120" fill="#ECF0F3"></rect><g data-v-630b9da2="" clip-path="url(#clip0_0_1)"><rect data-v-630b9da2="" x="-720" y="-272" width="1920" height="1080" rx="8" fill="#F2F6F8"></rect><rect data-v-630b9da2="" x="-23.5" y="-79.5" width="383" height="491" rx="3.5" fill="white"></rect><path data-v-630b9da2="" d="M0 60C0 75.913 6.32141 91.1742 17.5736 102.426C28.8258 113.679 44.087 120 60 120C75.913 120 91.1742 113.679 102.426 102.426C113.679 91.1742 120 75.913 120 60C120 44.087 113.679 28.8258 102.426 17.5736C91.1742 6.32141 75.913 0 60 0C44.087 0 28.8258 6.32141 17.5736 17.5736C6.32141 28.8258 0 44.087 0 60Z" fill="#F2F6F8"></path><path data-v-630b9da2="" d="M23.6848 77.2937C22.2374 77.2867 20.8454 76.7363 19.7847 75.7516L16.1194 72.3578C14.9868 71.3119 14.316 69.8589 14.2546 68.3185C14.1933 66.778 14.7464 65.2762 15.7923 64.1436C16.8381 63.0109 18.2911 62.3401 19.8316 62.2788C21.3721 62.2174 22.8738 62.7705 24.0065 63.8164L27.6717 67.2102C28.5162 67.9902 29.1103 69.0031 29.3792 70.1208C29.648 71.2385 29.5793 72.4108 29.182 73.4895C28.7846 74.5682 28.0763 75.5048 27.1466 76.181C26.2169 76.8571 25.1076 77.2425 23.959 77.2883C23.8667 77.2923 23.7757 77.2937 23.6848 77.2937ZM22.7359 72.8886C23.0684 73.1957 23.5092 73.3582 23.9615 73.3402C24.4138 73.3223 24.8404 73.1254 25.1475 72.7929C25.4546 72.4604 25.617 72.0195 25.5991 71.5673C25.5811 71.115 25.3843 70.6884 25.0518 70.3813L21.0512 66.6875C20.7192 66.3825 20.28 66.221 19.8295 66.2383C19.3789 66.2556 18.9534 66.4503 18.6457 66.7798C18.3392 67.1125 18.1772 67.5532 18.1953 68.0052C18.2133 68.4573 18.41 68.8836 18.7421 69.1908L22.7359 72.8886Z" fill="white" stroke="#1F222A" stroke-width="1.4" stroke-linecap="round" stroke-linejoin="round"></path><path data-v-630b9da2="" d="M23.103 71.6748C22.9596 71.8665 22.8555 72.0845 22.7965 72.3165C22.7375 72.5485 22.7247 72.7898 22.759 73.0267C22.7933 73.2635 22.874 73.4913 22.9963 73.697C23.1187 73.9028 23.2804 74.0823 23.4722 74.2255L29.319 78.5899C29.7068 78.8723 30.1902 78.9904 30.6646 78.9187C31.1389 78.8471 31.5659 78.5913 31.8529 78.2069C32.14 77.8225 32.2639 77.3405 32.1979 76.8654C32.132 76.3902 31.8814 75.9602 31.5005 75.6685L25.6537 71.3015C25.4618 71.1583 25.2435 71.0545 25.0114 70.9958C24.7793 70.9371 24.5379 70.9247 24.301 70.9594C24.0641 70.9941 23.8363 71.0751 23.6308 71.1978C23.4252 71.3206 23.2458 71.4827 23.103 71.6748Z" fill="#FFD76F" stroke="#1F222A" stroke-width="1.4" stroke-linecap="round" stroke-linejoin="round"></path><path data-v-630b9da2="" d="M25.6973 98.5171L25.7692 34.1608L79.5641 34.2209L79.4922 98.5772L25.6973 98.5171Z" fill="#D2DCE2"></path><path data-v-630b9da2="" d="M25.6973 98.5171L25.7692 34.1608L79.5641 34.2209L79.4922 98.5772L25.6973 98.5171Z" stroke="#1F222A" stroke-width="1.4" stroke-linecap="round" stroke-linejoin="round"></path><path data-v-630b9da2="" d="M33.0566 91.79L33.1285 27.4337L86.9235 27.4938L86.8516 91.8501L33.0566 91.79Z" fill="#D2DCE2"></path><path data-v-630b9da2="" d="M100.307 71.0869C99.2402 71.5158 98.0701 71.6186 96.9447 71.3824C95.8193 71.1461 94.7892 70.5813 93.9849 69.7595C93.1805 68.9378 92.638 67.8958 92.4259 66.7656C92.2138 65.6354 92.3417 64.4677 92.7934 63.4102L94.7564 58.8178C95.0529 58.1109 95.4863 57.4696 96.0317 56.9308C96.5771 56.3921 97.2237 55.9666 97.9342 55.6787C98.6447 55.3909 99.4051 55.2464 100.172 55.2537C100.938 55.2609 101.696 55.4197 102.401 55.721C103.106 56.0222 103.744 56.4599 104.279 57.0088C104.814 57.5578 105.236 58.2072 105.519 58.9196C105.802 59.632 105.941 60.3934 105.929 61.1599C105.916 61.9264 105.753 62.6829 105.447 63.3858L103.489 67.9755C102.925 69.3085 101.879 70.3804 100.561 70.9783C100.476 71.0163 100.391 71.0529 100.307 71.0869ZM101.758 61.5627C101.847 61.3567 101.893 61.1354 101.896 60.9113C101.899 60.6873 101.857 60.4649 101.773 60.257C101.69 60.049 101.566 59.8596 101.409 59.6995C101.253 59.5395 101.066 59.4119 100.86 59.3241C100.444 59.147 99.9743 59.1422 99.5546 59.3107C99.135 59.4791 98.7993 59.8072 98.6212 60.2228L96.4817 65.2306C96.3041 65.647 96.2991 66.1169 96.4679 66.537C96.6367 66.957 96.9654 67.2928 97.3818 67.4705C97.7981 67.6482 98.268 67.6532 98.6881 67.4844C99.1082 67.3156 99.444 66.9869 99.6216 66.5705L101.758 61.5627Z" fill="white" stroke="#1F222A" stroke-width="1.4" stroke-linecap="round" stroke-linejoin="round"></path><path data-v-630b9da2="" d="M89.3498 72.5218C89.4885 72.7168 89.6643 72.8826 89.8672 73.0096C90.07 73.1366 90.296 73.2223 90.532 73.2619C90.768 73.3015 91.0095 73.2942 91.2427 73.2403C91.4759 73.1865 91.6962 73.0871 91.891 72.9481L97.8355 68.7154C98.2185 68.4309 98.4747 68.0076 98.5492 67.5364C98.6236 67.0652 98.5104 66.5835 98.2338 66.1948C97.9572 65.8061 97.5392 65.5413 97.0696 65.4572C96.6 65.3732 96.1161 65.4765 95.7219 65.7452L89.7774 69.9792C89.5823 70.1181 89.4166 70.294 89.2895 70.4969C89.1625 70.6999 89.0767 70.9258 89.037 71.1619C88.9973 71.398 89.0044 71.6397 89.0581 71.873C89.1118 72.1063 89.2109 72.3268 89.3498 72.5218Z" fill="#FFD76F" stroke="#1F222A" stroke-width="1.4" stroke-linecap="round" stroke-linejoin="round"></path><path data-v-630b9da2="" d="M33.0566 91.79L33.1285 27.4337L86.9235 27.4938L86.8516 91.8501L33.0566 91.79Z" stroke="#1F222A" stroke-width="1.4" stroke-linecap="round" stroke-linejoin="round"></path><path data-v-630b9da2="" d="M39.9219 82.6895C39.9213 83.1373 40.009 83.5809 40.1799 83.9948C40.3508 84.4087 40.6015 84.785 40.9178 85.102C41.234 85.419 41.6097 85.6707 42.0232 85.8425C42.4367 86.0144 42.88 86.1031 43.3278 86.1036L80.5912 86.1444L93.7277 72.8409L93.7807 25.2171C93.7812 24.7692 93.6935 24.3257 93.5227 23.9118C93.3518 23.4978 93.1011 23.1216 92.7848 22.8046C92.4685 22.4876 92.0929 22.2359 91.6794 22.0641C91.2658 21.8922 90.8225 21.8035 90.3747 21.8029L43.4052 21.75C42.5006 21.7493 41.6326 22.1078 40.9922 22.7467C40.3518 23.3856 39.9912 24.2527 39.9898 25.1573L39.9219 82.6895Z" fill="white"></path><path data-v-630b9da2="" d="M39.9219 82.6895C39.9213 83.1373 40.009 83.5809 40.1799 83.9948C40.3508 84.4087 40.6015 84.785 40.9178 85.102C41.234 85.419 41.6097 85.6707 42.0232 85.8425C42.4367 86.0144 42.88 86.1031 43.3278 86.1036L80.5912 86.1444L93.7277 72.8409L93.7807 25.2171C93.7812 24.7692 93.6935 24.3257 93.5227 23.9118C93.3518 23.4978 93.1011 23.1216 92.7848 22.8046C92.4685 22.4876 92.0929 22.2359 91.6794 22.0641C91.2658 21.8922 90.8225 21.8035 90.3747 21.8029L43.4052 21.75C42.5006 21.7493 41.6326 22.1078 40.9922 22.7467C40.3518 23.3856 39.9912 24.2527 39.9898 25.1573L39.9219 82.6895Z" stroke="#1F222A" stroke-width="1.4" stroke-linecap="round" stroke-linejoin="round"></path><path data-v-630b9da2="" d="M52.634 59.0421C51.7846 60.2155 50.5245 61.0258 49.1045 61.3118L44.2175 62.3177C42.7145 62.6106 41.1568 62.2986 39.8825 61.4495C38.6083 60.6004 37.7206 59.2829 37.4121 57.7831C37.1037 56.2833 37.3995 54.7224 38.2353 53.4394C39.071 52.1564 40.3793 51.255 41.8758 50.931L46.7628 49.9251C47.8889 49.6937 49.0584 49.8015 50.1233 50.2347C51.1883 50.668 52.1008 51.4074 52.7455 52.3593C53.3902 53.3112 53.7382 54.4329 53.7454 55.5825C53.7526 56.7322 53.4187 57.8582 52.786 58.8181C52.7398 58.8941 52.6883 58.9688 52.634 59.0421ZM48.5017 57.2448C48.9451 57.1537 49.3341 56.8902 49.5832 56.5122C49.8324 56.1343 49.9211 55.6729 49.83 55.2295C49.739 54.7862 49.4755 54.3971 49.0975 54.148C48.7196 53.8989 48.2582 53.8101 47.8148 53.9012L42.4812 54.9981C42.0383 55.0902 41.65 55.3541 41.4011 55.7319C41.1523 56.1097 41.0633 56.5707 41.1536 57.014C41.2451 57.4569 41.5086 57.8455 41.8863 58.0944C42.264 58.3433 42.725 58.4322 43.1681 58.3416L48.5017 57.2448Z" fill="white" stroke="#1F222A" stroke-width="1.4" stroke-linecap="round" stroke-linejoin="round"></path><path data-v-630b9da2="" d="M37.5031 63.3166C36.9808 64.6666 35.97 65.7709 34.6714 66.4103L30.1984 68.6312C29.5146 68.9708 28.7707 69.1724 28.009 69.2245C27.2474 69.2766 26.4829 69.1781 25.7593 68.9348C25.0357 68.6914 24.3671 68.3079 23.7916 67.8062C23.2162 67.3044 22.7453 66.6943 22.4057 66.0105C22.0661 65.3268 21.8645 64.5828 21.8124 63.8212C21.7603 63.0595 21.8587 62.295 22.1021 61.5714C22.5935 60.11 23.6454 58.9037 25.0263 58.2178L29.5061 55.9969C30.5357 55.4868 31.6934 55.2932 32.833 55.4406C33.9726 55.588 35.0429 56.0698 35.9089 56.825C36.7749 57.5803 37.3976 58.5753 37.6985 59.6843C37.9994 60.7933 37.9649 61.9665 37.5995 63.0559C37.5669 63.1455 37.5357 63.231 37.5031 63.3166ZM33.0478 62.6378C33.4473 62.4333 33.7502 62.0797 33.8908 61.6534C34.0315 61.2272 33.9985 60.7627 33.799 60.3606C33.5996 59.9585 33.2498 59.6512 32.8253 59.5052C32.4009 59.3592 31.936 59.3864 31.5315 59.5807L26.6553 61.9971C26.2561 62.202 25.9536 62.5559 25.8134 62.9822C25.6732 63.4086 25.7066 63.8729 25.9064 64.2748C26.1062 64.6767 26.4562 64.9837 26.8807 65.1293C27.3052 65.2749 27.77 65.2474 28.1744 65.0528L33.0478 62.6378Z" fill="white" stroke="#1F222A" stroke-width="1.4" stroke-linecap="round" stroke-linejoin="round"></path><path data-v-630b9da2="" d="M93.7303 72.8383L81.939 72.8247C81.7643 72.8245 81.5913 72.8588 81.4298 72.9255C81.2684 72.9921 81.1216 73.09 80.9979 73.2134C80.8743 73.3368 80.7761 73.4834 80.7091 73.6447C80.6421 73.806 80.6075 73.979 80.6073 74.1537L80.5938 86.1445L93.7303 72.8383Z" fill="white" stroke="#1F222A" stroke-width="1.4" stroke-linecap="round" stroke-linejoin="round"></path><path data-v-630b9da2="" d="M42.4301 56.5986C42.6236 57.0417 42.6334 57.5434 42.4573 57.9937C42.2811 58.444 41.9335 58.8059 41.4907 59L34.7996 61.9241C34.5791 62.0276 34.3402 62.086 34.0968 62.0957C33.8535 62.1054 33.6107 62.0662 33.3827 61.9805C33.1547 61.8948 32.9463 61.7643 32.7696 61.5967C32.5929 61.4291 32.4516 61.2277 32.354 61.0046C32.2564 60.7815 32.2045 60.541 32.2013 60.2975C32.1982 60.054 32.2439 59.8123 32.3357 59.5867C32.4275 59.3612 32.5636 59.1563 32.7359 58.9842C32.9082 58.812 33.1132 58.6762 33.3389 58.5846L40.0246 55.6592C40.2442 55.5627 40.4806 55.5105 40.7204 55.5055C40.9602 55.5005 41.1987 55.5429 41.4221 55.6301C41.6455 55.7174 41.8496 55.8478 42.0225 56.014C42.1955 56.1802 42.334 56.3788 42.4301 56.5986Z" fill="#FFD76F" stroke="#1F222A" stroke-width="1.4" stroke-linecap="round" stroke-linejoin="round"></path><path data-v-630b9da2="" d="M58.087 53.2331C58.1452 53.4653 58.157 53.7066 58.1218 53.9434C58.0866 54.1802 58.005 54.4077 57.8819 54.6129C57.7587 54.8182 57.5963 54.9971 57.4039 55.1396C57.2115 55.282 56.993 55.3851 56.7608 55.4431L49.6814 57.2078C49.4472 57.2719 49.2026 57.2886 48.9619 57.2569C48.7212 57.2252 48.4893 57.1457 48.2797 57.0231C48.0701 56.9006 47.8872 56.7374 47.7415 56.5432C47.5958 56.3489 47.4905 56.1276 47.4315 55.892C47.3726 55.6565 47.3612 55.4116 47.3982 55.1717C47.4352 54.9317 47.5197 54.7016 47.6469 54.4947C47.774 54.2879 47.9412 54.1086 48.1385 53.9672C48.3359 53.8258 48.5595 53.7253 48.7963 53.6715L55.877 51.9068C56.346 51.7898 56.8422 51.8637 57.2566 52.1124C57.671 52.3611 57.9697 52.7642 58.087 53.2331Z" fill="#FFD76F" stroke="#1F222A" stroke-width="1.4" stroke-linecap="round" stroke-linejoin="round"></path><path data-v-630b9da2="" d="M28.2045 63.0071C28.4393 63.4296 28.4967 63.9281 28.3641 64.393C28.2314 64.8578 27.9196 65.2509 27.4972 65.4859L21.117 69.0344C20.9071 69.164 20.6731 69.2497 20.4291 69.2862C20.1851 69.3228 19.9363 69.3094 19.6976 69.247C19.459 69.1846 19.2355 69.0743 19.0407 68.923C18.8459 68.7717 18.6838 68.5824 18.5642 68.3666C18.4447 68.1508 18.3702 67.913 18.3453 67.6676C18.3203 67.4222 18.3455 67.1742 18.4191 66.9388C18.4928 66.7034 18.6135 66.4853 18.7739 66.2979C18.9343 66.1105 19.131 65.9575 19.3522 65.8484L25.7325 62.3012C26.1541 62.0681 26.6509 62.0115 27.1142 62.1438C27.5775 62.276 27.9695 62.5865 28.2045 63.0071Z" fill="#FFD76F" stroke="#1F222A" stroke-width="1.4" stroke-linecap="round" stroke-linejoin="round"></path><path data-v-630b9da2="" d="M80.9368 59.5973C80.3061 58.6359 79.9748 57.5092 79.9846 56.3595C79.9944 55.2098 80.3449 54.0888 80.9918 53.1383C81.6387 52.1879 82.553 51.4506 83.6189 51.0198C84.6849 50.5889 85.8547 50.4839 86.9804 50.7179L91.8674 51.736C93.3393 52.0856 94.6169 52.9953 95.4288 54.2718C96.2408 55.5483 96.5231 57.091 96.2158 58.5723C95.9084 60.0536 95.0357 61.3568 93.783 62.2049C92.5302 63.0531 90.9962 63.3794 89.5067 63.1146L84.6197 62.0978C83.1991 61.8097 81.9391 60.9975 81.0902 59.8226C81.0386 59.7493 80.987 59.6733 80.9368 59.5973ZM90.5601 59.1425C91 59.2269 91.4555 59.135 91.8282 58.8864C92.2009 58.6379 92.461 58.2528 92.5522 57.8143C92.6435 57.3757 92.5586 56.9188 92.3159 56.5423C92.0732 56.1658 91.6922 55.8998 91.2551 55.8017L85.9242 54.6981C85.7048 54.6524 85.4785 54.6505 85.2583 54.6923C85.0381 54.7341 84.8282 54.8189 84.6408 54.9418C84.4534 55.0647 84.292 55.2233 84.1658 55.4086C84.0397 55.5939 83.9513 55.8022 83.9056 56.0216C83.86 56.2411 83.858 56.4674 83.8998 56.6876C83.9416 56.9078 84.0264 57.1176 84.1493 57.3051C84.2722 57.4925 84.4309 57.6539 84.6161 57.78C84.8014 57.9062 85.0097 57.9946 85.2292 58.0402L90.5601 59.1425Z" fill="white" stroke="#1F222A" stroke-width="1.4" stroke-linecap="round" stroke-linejoin="round"></path><path data-v-630b9da2="" d="M91.3005 57.4019C91.1061 57.8445 91.0953 58.346 91.2704 58.7965C91.4455 59.247 91.7922 59.6096 92.2344 59.8047L98.9147 62.7451C99.3555 62.9302 99.8514 62.9347 100.296 62.7577C100.74 62.5807 101.097 62.2363 101.289 61.7987C101.482 61.3611 101.495 60.8653 101.325 60.4182C101.156 59.9711 100.818 59.6084 100.383 59.4083L93.7032 56.4626C93.4838 56.3661 93.2476 56.3139 93.008 56.309C92.7684 56.304 92.5301 56.3464 92.3069 56.4337C92.0837 56.5209 91.8799 56.6514 91.7072 56.8175C91.5345 56.9837 91.3963 57.1823 91.3005 57.4019Z" fill="#FFD76F" stroke="#1F222A" stroke-width="1.4" stroke-linecap="round" stroke-linejoin="round"></path><path data-v-630b9da2="" d="M75.6489 54.0017C75.5309 54.4704 75.6039 54.9668 75.8519 55.3818C76.0998 55.7967 76.5024 56.0962 76.9711 56.2144L84.0464 58.0009C84.2831 58.0751 84.5325 58.1003 84.7792 58.0748C85.026 58.0493 85.2649 57.9737 85.4815 57.8527C85.698 57.7317 85.8876 57.5677 86.0386 57.3709C86.1896 57.174 86.2988 56.9485 86.3596 56.7079C86.4203 56.4674 86.4314 56.217 86.392 55.9721C86.3527 55.7272 86.2638 55.4929 86.1307 55.2835C85.9977 55.0741 85.8233 54.8941 85.6182 54.7544C85.4132 54.6148 85.1818 54.5185 84.9383 54.4714L77.863 52.6849C77.3948 52.5667 76.8988 52.6389 76.4838 52.8858C76.0688 53.1326 75.7686 53.5339 75.6489 54.0017Z" fill="#FFD76F" stroke="#1F222A" stroke-width="1.4" stroke-linecap="round" stroke-linejoin="round"></path><path data-v-630b9da2="" d="M54.2656 67.4941L54.2893 46.3253L79.3786 46.3533L79.3549 67.5222L54.2656 67.4941Z" fill="#0451F9" stroke="#1F222A" stroke-width="1.4" stroke-linecap="round" stroke-linejoin="round"></path><path data-v-630b9da2="" d="M64.1934 56.9244C64.1934 57.2697 64.2614 57.6116 64.3935 57.9307C64.5257 58.2497 64.7193 58.5395 64.9635 58.7837C65.2077 59.0279 65.4976 59.2216 65.8166 59.3537C66.1356 59.4859 66.4775 59.5539 66.8228 59.5539C67.1681 59.5539 67.5101 59.4859 67.8291 59.3537C68.1481 59.2216 68.438 59.0279 68.6822 58.7837C68.9263 58.5395 69.12 58.2497 69.2522 57.9307C69.3843 57.6116 69.4523 57.2697 69.4523 56.9244C69.4523 56.5791 69.3843 56.2372 69.2522 55.9181C69.12 55.5991 68.9263 55.3092 68.6822 55.0651C68.438 54.8209 68.1481 54.6272 67.8291 54.4951C67.5101 54.3629 67.1681 54.2949 66.8228 54.2949C66.4775 54.2949 66.1356 54.3629 65.8166 54.4951C65.4976 54.6272 65.2077 54.8209 64.9635 55.0651C64.7193 55.3092 64.5257 55.5991 64.3935 55.9181C64.2614 56.2372 64.1934 56.5791 64.1934 56.9244Z" fill="white" stroke="#1F222A" stroke-width="1.4" stroke-linecap="round" stroke-linejoin="round"></path><path data-v-630b9da2="" d="M54.2656 67.4941L54.2893 46.3253L79.3786 46.3533L79.3549 67.5222L54.2656 67.4941Z" stroke="#1F222A" stroke-width="1.4" stroke-linecap="round" stroke-linejoin="round"></path><path data-v-630b9da2="" d="M71.7643 46.3424V41.9509C71.7758 41.2968 71.6571 40.647 71.4149 40.0393C71.1728 39.4316 70.8121 38.8782 70.3539 38.4113C69.8957 37.9444 69.3491 37.5734 68.7461 37.3199C68.1431 37.0664 67.4956 36.9355 66.8414 36.9347C66.1872 36.934 65.5395 37.0635 64.9359 37.3157C64.3323 37.5679 63.7849 37.9377 63.3257 38.4035C62.8664 38.8694 62.5045 39.422 62.261 40.0292C62.0176 40.6364 61.8974 41.2859 61.9075 41.94V46.3315H57.4277V41.9414C57.46 39.4657 58.4668 37.1025 60.2299 35.3642C61.9929 33.6259 64.3701 32.6526 66.8459 32.6553C69.3218 32.658 71.6969 33.6364 73.4561 35.3785C75.2154 37.1207 76.2171 39.486 76.244 41.9617V46.3532L71.7643 46.3424Z" fill="white" stroke="#1F222A" stroke-width="1.4" stroke-linecap="round" stroke-linejoin="round"></path><rect data-v-630b9da2="" x="-23.5" y="-79.5" width="383" height="491" rx="3.5" stroke="#DDE3E8"></rect></g><defs data-v-630b9da2=""><clipPath data-v-630b9da2="" id="clip0_0_1"><rect data-v-630b9da2="" x="-720" y="-272" width="1920" height="1080" rx="8" fill="white"></rect></clipPath></defs></svg>